# xmcd
#
# Track frame offsets: 
#        150
#        20606
#        40173
#        68494
#        87694
#        105934
#        131015
#        152255
#        176256
#        203256
#        227046
#
# Disc length: 3280 seconds
#
# Revision: 0
# Processed by: cddbd v1.5.2PL0 Copyright (c) Steve Scherf et al.
# Submitted via: ExactAudioCopyFreeDBPlugin 1.0
#
DISCID=790cce0b
DTITLE=Various Artist - TW11 The Tidy High School Romp [CD2 - Mixed By Amb
DTITLE=er D)
DYEAR=2007
DGENRE=Dance
TTITLE0=Ben Stevens and Paul Maddox - Gravity
TTITLE1=Nick Sentience - Never Lost His Hostile
TTITLE2=Stimulant Djs - Hoover Time
TTITLE3=Amp Attack - What You Do (Tom Parr Remix)
TTITLE4=Ben Kaye and Carl Nicholson - I Can't Stop (Scott Fo Shaw Remix)
TTITLE5=Adrenaline Dept. - The Escape
TTITLE6=Michael James and Riggsy - Pump Up The Noise
TTITLE7=Amber D - Kiss and Tell
TTITLE8=BK - Its Just A Feeling (BK's Back To 99 Remix)
TTITLE9=Nocturnal Disorder - Trigger Finger (2007 Remix)
TTITLE10=12 Inch Thumpers - Don't Cross The Line (Amber D Remix)
EXTD=
EXTT0=
EXTT1=
EXTT2=
EXTT3=
EXTT4=
EXTT5=
EXTT6=
EXTT7=
EXTT8=
EXTT9=
EXTT10=
PLAYORDER=
